PathFileType	4	(X/Y/Z)	Patient4_TMGait_0pt7_02_left_39.trc.trc
DataRate	CameraRate	NumFrames	NumMarkers	Units	OrigDataRate	OrigDataStartFrame	OrigNumFrames
83.832335329341	83.832335329341	4	33	mm	83.832335329341	89	       141
Frame#	Time	Sacral			L.Shoulder			Chest			R.Shoulder			Neck			R.ASIS			L.ASIS			R.Thigh.Superior			R.Thigh.Lateral			R.Thigh.Inferior			R.Patella			L.Thigh.Superior			L.Thigh.Lateral			L.Thigh.Inferior			L.Patella			L.Shank.Superior			L.Shank.Lateral			L.Shank.Inferior			R.Shank.Superior			R.Shank.Lateral			R.Shank.Inferior			R.Heel			R.Midfoot.Superior			R.Midfoot.Lateral			R.Toe			L.Heel			L.Midfoot.Lateral			L.Midfoot.Superior			L.Toe			L.Elbow			L.Wrist			R.Elbow			R.Wrist			
		X1	Y1	Z1	X2	Y2	Z2	X3	Y3	Z3	X4	Y4	Z4	X5	Y5	Z5	X6	Y6	Z6	X7	Y7	Z7	X8	Y8	Z8	X9	Y9	Z9	X10	Y10	Z10	X11	Y11	Z11	X12	Y12	Z12	X13	Y13	Z13	X14	Y14	Z14	X15	Y15	Z15	X16	Y16	Z16	X17	Y17	Z17	X18	Y18	Z18	X19	Y19	Z19	X20	Y20	Z20	X21	Y21	Z21	X22	Y22	Z22	X23	Y23	Z23	X24	Y24	Z24	X25	Y25	Z25	X26	Y26	Z26	X27	Y27	Z27	X28	Y28	Z28	X29	Y29	Z29	X30	Y30	Z30	X31	Y31	Z31	X32	Y32	Z32	X33	Y33	Z33	

89	45.669714285714	748.535210455226	1001.389297503276	528.936018981917	955.409635917059	1423.153096628698	345.534120929512	1058.728288451258	1340.783541690013	501.933648387493	985.840215955111	1420.309199959032	678.128901073442	966.021741577203	1478.289982782125	499.033481466377	979.439732555037	922.875171945546	633.855450512267	952.323888781441	951.307752746354	361.514274112380	1047.216852671916	746.742558268729	602.952197127897	987.349660918014	627.876374235523	661.521335220446	1074.553334844353	590.677945834870	581.505322641228	1093.009786826616	498.686368123633	589.154704836421	993.786749630340	736.759655278483	374.806518786724	903.294997327624	624.151062784389	310.288322874188	992.807371352672	536.279446514663	360.202556392159	982.304516818465	449.247165994528	355.228015999029	907.868671482037	395.937004939685	353.950210383363	762.034431933769	367.289056475357	310.008587078302	737.489398953299	241.973592979522	368.596219672400	1063.564979905493	407.176779398985	595.638027676658	992.942761580375	300.983355144624	655.585839716066	1039.148173382679	207.942680167284	592.159278865859	908.467878397345	42.752023513273	556.374270118259	1079.227505252643	98.760012757168	598.207679431350	989.928758565042	36.725119258760	632.646152348129	1198.181625379262	46.400679445093	627.080513779634	540.439696646371	192.487579967982	407.585491237167	596.262308640091	140.500979735691	330.569806071730	701.002107238180	144.815407379500	352.019803976607	773.342214433682	35.907520774636	331.618159567012	943.141736678242	1085.379895755754	202.132710193909	1163.268617138088	951.319091403725	231.592499159278	901.733078366363	1080.964908610077	798.602881468930	928.003837216180	819.958131618651	792.710750882884	
90	45.681642857143	747.807023075596	1002.738624652119	531.998905590249	953.239714949865	1424.527373021241	348.141120762919	1058.022239924251	1341.957876871918	503.597033157583	986.855454732592	1421.241315902016	680.506555425437	965.313760251977	1479.524947596148	501.698687378609	978.765719057750	924.581732478890	636.005568017774	951.163168800818	952.323539519259	363.736422170719	1044.170680958415	745.903868453175	606.267689442717	982.810128067987	628.216702844472	664.162824363640	1069.353550826933	590.005040344967	583.905482627999	1086.670413652656	497.959311141706	591.666183101488	998.681727356590	741.342466104103	377.267667818950	913.631246566118	626.284043554989	311.110674844977	1006.434773642573	541.052366525663	361.004480940028	997.792072588663	452.712247429442	355.082002879716	921.827594069926	399.252124333745	354.117849670176	774.625725175999	375.164614515488	311.562569361435	746.871550674859	250.465237507973	369.880839621403	1056.630288201486	406.805686586501	597.762742574718	985.333289546270	300.713599985856	656.977760631420	1031.424506118357	207.793959472140	593.342349793591	900.312740474211	42.689587594551	556.618441950072	1071.083222475091	98.700720347786	598.669169803824	981.759275313505	36.613533616612	632.849586879759	1190.007833888345	46.377884274985	627.297450550634	548.890072517340	208.125900657502	411.268493381483	601.542125459187	154.623432136630	332.838976086743	707.014500083122	154.200427985797	352.871699620136	774.199064524321	39.773614150404	329.835702204838	933.202419862086	1085.149432891125	208.153898172289	1144.530324229568	935.239566107314	232.227602571582	914.598070983100	1079.019018915970	802.087911916867	953.534229617213	819.485608776212	794.091003843958	
91	45.693571428571	746.915877802172	1004.065888878817	534.809048904468	950.948170957030	1425.738847056876	350.515208003453	1057.168966736149	1343.048706293690	505.068881075862	987.717297728016	1422.146988316529	682.670579927872	964.508069682151	1480.695782553323	504.106979153034	977.850288136225	926.234853719580	638.123484467116	949.928423851553	953.219402536742	365.958147376993	1040.881040728686	745.255748767422	609.445637062611	977.960586220843	628.553121021400	666.755036188793	1064.007562486363	589.374535921256	586.447426015966	1080.127752279970	497.299051471020	594.286843099982	1003.157196347301	746.266099255242	379.839305404984	923.622448107860	629.145944806161	311.726130098280	1019.464074883495	546.663344728227	361.713730388269	1012.912441587835	457.156904412035	354.799073163871	935.799485631942	403.282211654529	354.066596391888	787.474258746263	382.982571633019	313.004743322191	757.258714949420	258.806003109795	371.082039808201	1049.546005401287	406.495446134681	599.908475769517	977.558160026021	300.501917562869	658.334423660288	1023.615030826097	207.700764763950	594.547615546878	892.107242609981	42.682734438172	556.864422001284	1062.944737552370	98.668789371820	599.126456473917	973.540407995199	36.517914833940	633.044042679163	1181.783719172620	46.300621577978	627.500372810120	558.842387418200	222.027461348318	414.974852400673	608.696021400494	167.719319452933	335.098981272975	714.658443499683	163.527147500426	353.699868262235	777.595028501875	44.758667742646	327.960618190289	923.060834468171	1084.931884585714	214.096847639167	1124.173389886813	919.747918081980	232.839964304376	927.663881740910	1077.531405678402	805.326176664464	979.574823828456	820.181635685629	795.199581720418	
92	45.705500000000	745.870881819329	1005.362560151234	537.375012222560	948.595549806685	1426.804052550945	352.676327207402	1056.178853126571	1344.056298475521	506.377196977743	988.407369620423	1423.032990123580	684.637028454807	963.635577932753	1481.807365153730	506.276244955158	976.736225925027	927.831102853089	640.217059967386	948.588349273136	954.014773532476	368.171558733150	1037.446559816115	744.802739648636	612.481579054432	972.871901208689	628.885876443581	669.244104403722	1058.595702281637	588.792849714108	589.079977573557	1073.470574910944	496.709831446108	596.932890322448	1007.183290973583	751.487111669203	382.475012501902	933.147887395158	632.686486019851	312.155131724696	1031.793342210790	553.026960670914	362.288616967911	1027.551232325538	462.507815362454	354.336666665300	949.675786776819	407.943094084186	353.786673870371	800.451691945849	390.531447292771	314.258918658265	768.588804825146	266.728283379310	372.121171618563	1042.389322780387	406.246471140454	602.021439677182	969.675470902827	300.368771657506	659.626671660566	1015.743993293058	207.659276061960	595.740580395791	883.838175970951	42.729717397353	557.111089846360	1054.794512143723	98.663995158644	599.570451058251	965.261222493349	36.444355522098	633.227412661847	1173.500480006195	46.182465913000	627.689163205420	570.122008989965	233.821526758731	418.484134756342	617.673109358682	179.304904087943	337.228594567685	723.938257433435	172.397447995531	354.454525317704	783.675730826697	50.557114974215	326.143034264804	912.734813143727	1084.797660544386	219.914173596560	1102.251717690597	905.085698621240	233.493049818430	940.881982066589	1076.502030605953	808.246136082492	1005.979886038231	822.122476691143	795.972748660560	
